<svg width="28" height="28" viewBox="0 0 28 28" fill="none" xmlns="http://www.w3.org/2000/svg">
<rect width="28" height="28" rx="3" fill="#C1D9EC"/>
<rect y="22" width="28" height="6" rx="3" fill="#F5F5F5"/>
<path fill-rule="evenodd" clip-rule="evenodd" d="M9.01651 10.8754H8.88788V8.30279H10.1742V10.8754H9.01651ZM17.7632 10.8754H16.477V8.30279H17.7632V10.8754Z" fill="#F5F5F5"/>
<path d="M10.1742 8.30279V10.8754H9.01651H8.88788V8.30279H10.1742Z" fill="black"/>
<path d="M17.7632 8.30279V10.8754H16.477V8.30279H17.7632Z" fill="black"/>
<path d="M19.0495 12.1616V13.4479L20.3358 13.4479V12.1616H19.0495Z" fill="black"/>
<path fill-rule="evenodd" clip-rule="evenodd" d="M20.2072 26.0535V22.1947H16.6056V26.0535H20.2072ZM10.1742 26.0535V22.1947H6.7012L6.7012 26.0535L10.1742 26.0535Z" fill="black"/>
<path d="M10.1742 22.1947V26.0535H6.44394L6.44394 22.1947H6.7012H10.1742Z" fill="#EC922E"/>
<path d="M20.3358 22.1947V26.0535H16.6056V22.1947H20.2072H20.3358Z" fill="#EC922E"/>
<path d="M9.01651 11.7363V10.8754H8.88788H7.73022V11.6818V12.1616H9.01651V11.7363Z" fill="#F17861"/>
<path d="M17.7632 10.8754V12.1071V12.1616L19.0495 12.1616V10.8754H17.7632Z" fill="#F17861"/>
<path fill-rule="evenodd" clip-rule="evenodd" d="M14.033 13.2904V12.1616H15.3193V12.0035V10.8754H14.033H12.8754H12.7467H11.5891V11.8454V12.1616H12.7467V13.2904V13.4479L14.033 13.4479V13.2904Z" fill="#EC922E"/>
<path d="M6.44394 13.4479L7.73022 13.4479V12.1616H7.65673H6.44394V13.4479Z" fill="black"/>
<path fill-rule="evenodd" clip-rule="evenodd" d="M17.7632 10.8754H16.477V8.30279H17.7632V10.8754ZM19.0495 12.1616L17.7632 12.1616V12.1071V10.8754H19.0495V12.1616ZM7.73022 12.1616V13.4479H8.83875H9.01651V13.4869V14.7342H17.7632V13.4479L18.5162 13.45L19.0495 13.4479V12.1616H20.3358V8.30279H19.0495L19.0495 7.0165L15.3193 7.0165V8.30279H14.033V10.8754H15.3193V12.0035V12.1616H14.033V13.2904V13.4479L12.7467 13.4479V13.2904V12.1616H11.5891V11.8454V10.8754H12.7467L12.7467 8.30279L11.5891 8.30279V7.0165L7.73022 7.0165L7.73022 8.30279H6.44394L6.44394 12.1616H7.65673H7.73022ZM7.73022 12.1616V11.6818V10.8754H8.88788V8.30279H10.1742V10.8754H9.01651V11.7363V12.1616H7.73022Z" fill="#F5F5F5"/>
<path d="M8.83875 13.4479H7.73022V13.492L7.73022 14.7342H6.44394L6.44394 16.0205L5.15765 16.0205L5.15765 17.3068H4V19.6221H6.7012V22.1947H10.1742V26.0535H16.6056V22.1947H20.2072V19.6221L22.6511 19.6221V17.3068H21.4935V16.0205L20.2072 16.0205V14.7342H19.0495L19.0495 13.4479L18.5162 13.45L17.7632 13.4479V14.7342H9.01651V13.4869V13.4479H8.83875Z" fill="black"/>
<path d="M6.44394 7.0165H6.4202H5.15766V12.1616H6.44394L6.44394 8.30279H7.73022L7.73022 7.0165L11.5891 7.0165V8.30279L12.7467 8.30279L12.7467 10.8754H12.8754H14.033V8.30279H15.3193V7.0165L19.0495 7.0165L19.0495 8.30279H20.3358V12.1616H21.6221V7.0165H20.3358V6.83874V4.44394H19.0495L19.0495 3.15765H16.6056V2H13.3899H10.1742V3.15765H7.73022L7.73022 4.44394H6.44394V6.83874L6.44394 7.0165Z" fill="black"/>
<path d="M24.1699 18C24.1699 18 22.0806 18 21.6699 17.5L24.4378 8.5C24.7951 9.5 25.8301 11.5 25.6699 12.5C25.5116 13.4874 24.1699 18 24.1699 18Z" fill="#D1D1D1"/>
<path d="M25.0152 15L24.6133 16.5L23.1699 13.5L23.6699 11.5L25.0152 15Z" fill="white"/>
<path d="M21.9737 17.5L21.1699 20.5C21.6699 20.6667 22.7699 21 23.1699 21C23.5699 21 23.6699 19 23.6699 18L21.9737 17.5Z" fill="#97683F"/>
<path d="M24.5586 7.8623C24.8813 8.35379 25.3323 9.19084 25.6475 10.1191C25.9603 11.0407 26.1524 12.0926 25.9111 12.9932C25.6895 13.8203 25.4487 14.7534 25.2188 15.6475C24.989 16.5409 24.7698 17.3963 24.5908 18.0645L24.541 18.25H23.958C23.9728 18.3662 23.9824 18.4643 23.9824 18.5557C23.9824 18.7221 23.9561 18.8565 23.9121 19.0244C23.8273 19.3481 23.663 19.8485 23.415 21.1289C23.3871 21.2734 23.2942 21.3753 23.1748 21.4277C23.0704 21.4735 22.9543 21.4781 22.8555 21.4717C22.6551 21.4587 22.412 21.3891 22.1768 21.3047C21.6984 21.133 21.1653 20.8678 20.8848 20.7217L20.707 20.6289L24.252 7.39648L24.5586 7.8623ZM21.2939 20.3662C21.5805 20.5104 21.9827 20.704 22.3447 20.834C22.5708 20.9151 22.7602 20.9653 22.8877 20.9736C22.9082 20.975 22.9249 20.9712 22.9375 20.9707C23.1827 19.716 23.3472 19.2049 23.4277 18.8975C23.467 18.7477 23.4824 18.6606 23.4824 18.5557C23.4824 18.4649 23.4694 18.3557 23.4434 18.1816L22.0225 17.6484L21.2939 20.3662ZM22.1523 17.1621L23.7158 17.75H24.1553C24.3238 17.1153 24.526 16.3373 24.7354 15.5234C24.9653 14.6295 25.2063 13.6934 25.4287 12.8633C25.6314 12.1065 25.4759 11.1702 25.1738 10.2803C24.9634 9.66049 24.6874 9.0827 24.4375 8.63379L22.1523 17.1621Z" fill="black"/>
</svg>
